<mxfile host="65bd71144e">
    <diagram id="6IgaBH9yY8oFO6pXhLui" name="Page-1">
        <mxGraphModel dx="943" dy="1020" grid="1" gridSize="10" guides="1" tooltips="1" connect="1" arrows="1" fold="1" page="1" pageScale="1" pageWidth="850" pageHeight="320" math="0" shadow="0">
            <root>
                <mxCell id="0"/>
                <mxCell id="1" parent="0"/>
                <mxCell id="2" value="Raw javascript code" style="rounded=0;whiteSpace=wrap;html=1;" vertex="1" parent="1">
                    <mxGeometry x="18" y="100" width="92" height="40" as="geometry"/>
                </mxCell>
                <mxCell id="6" value="" style="shape=singleArrow;whiteSpace=wrap;html=1;" vertex="1" parent="1">
                    <mxGeometry x="110" y="115" width="20" height="10" as="geometry"/>
                </mxCell>
                <mxCell id="10" value="Javascript Engine" style="swimlane;whiteSpace=wrap;html=1;align=left;" vertex="1" parent="1">
                    <mxGeometry x="130" y="20" width="690" height="280" as="geometry"/>
                </mxCell>
                <mxCell id="5" value="Excecution" style="rounded=0;whiteSpace=wrap;html=1;" vertex="1" parent="10">
                    <mxGeometry x="520" y="80" width="90" height="40" as="geometry"/>
                </mxCell>
                <mxCell id="11" value="AST" style="rounded=0;whiteSpace=wrap;html=1;" vertex="1" parent="10">
                    <mxGeometry x="130" y="80" width="60" height="40" as="geometry"/>
                </mxCell>
                <mxCell id="12" value="" style="shape=singleArrow;whiteSpace=wrap;html=1;" vertex="1" parent="10">
                    <mxGeometry x="190" y="95" width="30" height="10" as="geometry"/>
                </mxCell>
                <mxCell id="8" value="" style="shape=singleArrow;whiteSpace=wrap;html=1;fontStyle=1" vertex="1" parent="10">
                    <mxGeometry x="440" y="95" width="40" height="10" as="geometry"/>
                </mxCell>
                <mxCell id="14" value="Machine Code" style="rounded=0;whiteSpace=wrap;html=1;" vertex="1" parent="10">
                    <mxGeometry x="370" y="80" width="70" height="40" as="geometry"/>
                </mxCell>
                <mxCell id="15" value="" style="shape=singleArrow;whiteSpace=wrap;html=1;" vertex="1" parent="10">
                    <mxGeometry x="350" y="95" width="20" height="10" as="geometry"/>
                </mxCell>
                <mxCell id="7" value="" style="shape=singleArrow;whiteSpace=wrap;html=1;" vertex="1" parent="10">
                    <mxGeometry x="100" y="95" width="30" height="10" as="geometry"/>
                </mxCell>
                <mxCell id="9" value="Parsing" style="rounded=0;whiteSpace=wrap;html=1;" vertex="1" parent="10">
                    <mxGeometry x="10" y="80" width="90" height="40" as="geometry"/>
                </mxCell>
                <mxCell id="21" value="Call Stack" style="swimlane;whiteSpace=wrap;html=1;" vertex="1" parent="10">
                    <mxGeometry x="480" y="40" width="170" height="200" as="geometry"/>
                </mxCell>
                <mxCell id="24" value="Compilation" style="swimlane;whiteSpace=wrap;html=1;" vertex="1" parent="10">
                    <mxGeometry x="220" y="40" width="130" height="120" as="geometry"/>
                </mxCell>
                <mxCell id="27" value="Compaling AST to Machine Code" style="rounded=0;whiteSpace=wrap;html=1;" vertex="1" parent="24">
                    <mxGeometry x="20" y="40" width="90" height="50" as="geometry"/>
                </mxCell>
                <mxCell id="29" value="Optimisation" style="rounded=0;whiteSpace=wrap;html=1;" vertex="1" parent="10">
                    <mxGeometry x="220" y="200" width="130" height="40" as="geometry"/>
                </mxCell>
                <mxCell id="31" value="" style="shape=singleArrow;whiteSpace=wrap;html=1;rotation=-180;" vertex="1" parent="10">
                    <mxGeometry x="370" y="215" width="90" height="10" as="geometry"/>
                </mxCell>
                <mxCell id="32" value="" style="shape=singleArrow;whiteSpace=wrap;html=1;rotation=-90;" vertex="1" parent="10">
                    <mxGeometry x="267.5" y="177.5" width="35" height="10" as="geometry"/>
                </mxCell>
            </root>
        </mxGraphModel>
    </diagram>
</mxfile>